<svg id="Layer_1" data-name="Layer 1" xmlns="http://www.w3.org/2000/svg" viewBox="0 0 115.95 68.02"><defs><style>.cls-1{font-size:50px;stroke:#fff;stroke-miterlimit:10;font-family:Averta-Semibold, Averta-Semibold;}.cls-1,.cls-2{fill:#fff;}</style></defs><title>logo</title><text class="cls-1" transform="translate(24.31 54.69) rotate(-6.88)">a</text><path class="cls-2" d="M215.81,298.17a27,27,0,0,1-6.61-11.81c-.23-.84-2.19-10.61-2-10.65L246,268.1c-.37-4.45-2.6-8.17-5.2-11.88s-7.79-8.16-14.1-9.28-12.25,1.12-14.1,1.86-13,6.31-13.73,22.27a64.25,64.25,0,0,0,.23,9.61c1.67,16.07,12,30.74,29,32.61,5.08.56,11.43.53,16.23-1.5-1.41-2.54-3-5-4.26-7.69C231.25,305.59,222.37,304.86,215.81,298.17ZM227.5,254a5.5,5.5,0,1,1-5.5,5.5A5.5,5.5,0,0,1,227.5,254Z" transform="translate(-198.79 -246.64)"/><text class="cls-1" transform="translate(51.96 51.74) rotate(9.16)">t</text><text class="cls-1" transform="translate(84.3 54.04) rotate(-5.93)">i</text><text class="cls-1" transform="translate(97.21 53.86)">t</text></svg>